<svg xmlns="http://www.w3.org/2000/svg" width="512" height="512" viewBox="0 0 512 512">
  <defs>
    <linearGradient id="bg" x1="0" y1="0" x2="0" y2="1">
      <stop offset="0" stop-color="#0B1E36"/>
      <stop offset="1" stop-color="#123a63"/>
    </linearGradient>
    <linearGradient id="wave" x1="0" y1="0" x2="1" y2="1">
      <stop offset="0" stop-color="#00A3A6"/>
      <stop offset="1" stop-color="#1D70B8"/>
    </linearGradient>
  </defs>
  <rect width="512" height="512" rx="112" fill="url(#bg)"/>
  <!-- location pin formed by a teal droplet -->
  <path d="M256 120c-62 0-112 49-112 110 0 78 96 150 109 159a6 6 0 0 0 7 0c13-9 108-81 108-159 0-61-50-110-112-110z"
        fill="url(#wave)"/>
  <circle cx="256" cy="228" r="42" fill="#ffffff"/>
  <!-- three water waves under the pin -->
  <g fill="none" stroke="#00A3A6" stroke-width="14" stroke-linecap="round" opacity="0.85">
    <path d="M120 392c26-22 52-22 78 0s52 22 78 0 52-22 78 0 52 22 78 0"/>
    <path d="M120 432c26-22 52-22 78 0s52 22 78 0 52-22 78 0 52 22 78 0" opacity="0.55"/>
  </g>
</svg>
